<mxfile host="app.diagrams.net" modified="2022-03-03T08:23:05.382Z" agent="5.0 (Windows NT 10.0; Win64; x64) AppleWebKit/537.36 (KHTML, like Gecko) Chrome/98.0.4758.102 Safari/537.36" etag="wg_R4YYuL28SG1PXhzI5" version="16.6.5" type="github">
  <diagram id="VCPiUlUgkRnU6FgvmjeM" name="Page-1">
    <mxGraphModel dx="1182" dy="764" grid="1" gridSize="10" guides="1" tooltips="1" connect="1" arrows="1" fold="1" page="1" pageScale="1" pageWidth="827" pageHeight="1169" math="0" shadow="0">
      <root>
        <mxCell id="0" />
        <mxCell id="1" parent="0" />
        <mxCell id="EntMQD-L92ceGihrGhIw-2" value="" style="rounded=0;whiteSpace=wrap;html=1;" vertex="1" parent="1">
          <mxGeometry x="140" y="130" width="650" height="430" as="geometry" />
        </mxCell>
        <mxCell id="EntMQD-L92ceGihrGhIw-1" value="utilisateur" style="shape=umlActor;verticalLabelPosition=bottom;verticalAlign=top;html=1;outlineConnect=0;" vertex="1" parent="1">
          <mxGeometry x="170" y="260" width="30" height="60" as="geometry" />
        </mxCell>
        <mxCell id="EntMQD-L92ceGihrGhIw-4" value="" style="rounded=0;whiteSpace=wrap;html=1;" vertex="1" parent="1">
          <mxGeometry x="260" y="190" width="510" height="350" as="geometry" />
        </mxCell>
        <mxCell id="EntMQD-L92ceGihrGhIw-5" value="Station météorologique domestique" style="text;html=1;strokeColor=none;fillColor=none;align=center;verticalAlign=middle;whiteSpace=wrap;rounded=0;" vertex="1" parent="1">
          <mxGeometry x="330" y="190" width="250" height="30" as="geometry" />
        </mxCell>
        <mxCell id="EntMQD-L92ceGihrGhIw-6" value="" style="rounded=0;whiteSpace=wrap;html=1;" vertex="1" parent="1">
          <mxGeometry x="140" y="130" width="650" height="40" as="geometry" />
        </mxCell>
        <mxCell id="EntMQD-L92ceGihrGhIw-8" value="Cas d&#39;utilisation de la station météorologique&amp;nbsp;" style="text;html=1;strokeColor=none;fillColor=none;align=center;verticalAlign=middle;whiteSpace=wrap;rounded=0;" vertex="1" parent="1">
          <mxGeometry x="140" y="135" width="640" height="30" as="geometry" />
        </mxCell>
        <mxCell id="EntMQD-L92ceGihrGhIw-15" value="&quot;include&quot;" style="rounded=0;orthogonalLoop=1;jettySize=auto;html=1;exitX=1;exitY=0.5;exitDx=0;exitDy=0;dashed=1;" edge="1" parent="1" source="EntMQD-L92ceGihrGhIw-9" target="EntMQD-L92ceGihrGhIw-10">
          <mxGeometry relative="1" as="geometry" />
        </mxCell>
        <mxCell id="EntMQD-L92ceGihrGhIw-16" value="&quot;include&quot;" style="rounded=0;orthogonalLoop=1;jettySize=auto;html=1;exitX=1;exitY=0.5;exitDx=0;exitDy=0;dashed=1;" edge="1" parent="1" source="EntMQD-L92ceGihrGhIw-9" target="EntMQD-L92ceGihrGhIw-12">
          <mxGeometry relative="1" as="geometry" />
        </mxCell>
        <mxCell id="EntMQD-L92ceGihrGhIw-18" value="&quot;include&quot;" style="rounded=0;orthogonalLoop=1;jettySize=auto;html=1;exitX=1;exitY=0.5;exitDx=0;exitDy=0;entryX=0.008;entryY=0.6;entryDx=0;entryDy=0;entryPerimeter=0;dashed=1;" edge="1" parent="1" source="EntMQD-L92ceGihrGhIw-9" target="EntMQD-L92ceGihrGhIw-13">
          <mxGeometry relative="1" as="geometry" />
        </mxCell>
        <mxCell id="EntMQD-L92ceGihrGhIw-9" value="Connaître la météo" style="ellipse;whiteSpace=wrap;html=1;" vertex="1" parent="1">
          <mxGeometry x="350" y="280" width="120" height="80" as="geometry" />
        </mxCell>
        <mxCell id="EntMQD-L92ceGihrGhIw-10" value="Voir la température" style="ellipse;whiteSpace=wrap;html=1;" vertex="1" parent="1">
          <mxGeometry x="600" y="220" width="120" height="80" as="geometry" />
        </mxCell>
        <mxCell id="EntMQD-L92ceGihrGhIw-12" value="Voir l&#39;humidité" style="ellipse;whiteSpace=wrap;html=1;" vertex="1" parent="1">
          <mxGeometry x="600" y="320" width="120" height="80" as="geometry" />
        </mxCell>
        <mxCell id="EntMQD-L92ceGihrGhIw-13" value="Voir la pression" style="ellipse;whiteSpace=wrap;html=1;" vertex="1" parent="1">
          <mxGeometry x="600" y="420" width="120" height="80" as="geometry" />
        </mxCell>
        <mxCell id="EntMQD-L92ceGihrGhIw-19" value="&quot;extend&quot;" style="rounded=0;orthogonalLoop=1;jettySize=auto;html=1;exitX=0.5;exitY=0;exitDx=0;exitDy=0;entryX=0.5;entryY=1;entryDx=0;entryDy=0;dashed=1;" edge="1" parent="1" source="EntMQD-L92ceGihrGhIw-14" target="EntMQD-L92ceGihrGhIw-9">
          <mxGeometry relative="1" as="geometry" />
        </mxCell>
        <mxCell id="EntMQD-L92ceGihrGhIw-14" value="Voir une prédiction" style="ellipse;whiteSpace=wrap;html=1;" vertex="1" parent="1">
          <mxGeometry x="330" y="420" width="120" height="80" as="geometry" />
        </mxCell>
      </root>
    </mxGraphModel>
  </diagram>
</mxfile>
